<?xml version="1.0" encoding="utf-8"?>
<!-- Generator: Adobe Illustrator 16.0.0, SVG Export Plug-In . SVG Version: 6.00 Build 0)  -->
<!DOCTYPE svg PUBLIC "-//W3C//DTD SVG 1.1//EN" "http://www.w3.org/Graphics/SVG/1.1/DTD/svg11.dtd">
<svg version="1.1" xmlns="http://www.w3.org/2000/svg" xmlns:xlink="http://www.w3.org/1999/xlink" x="0px" y="0px" width="1280px"
	 height="800px" viewBox="0 0 1280 800" enable-background="new 0 0 1280 800" xml:space="preserve">
<g id="레이어_2">
	<polygon fill="#E0CFAD" points="725.5,457.5 718.5,481.5 735.5,511.5 776.5,511.5 788.5,484.5 788.5,466.5 814.5,463.5 
		830.5,437.5 825.5,405.5 796.5,393.5 774.5,405.5 743.5,375.5 701.5,422.5 	"/>
</g>
<g id="레이어_3">
	<path fill="#BC623F" d="M457.5,320c0,0,37.235,48.374,152-36.5s54-120,42-138s-78.31-33.253-143,31s-73.154,134-55,143.5"/>
</g>
<g id="레이어_1">
	<path d="M833.869,396.929c-9.383-9.391-21.858-14.56-35.129-14.56c-8.854,0-17.36,2.302-24.827,6.622l-16.929-16.925
		c10.303-22.479,23.271-71.431,2.533-121.582c-7.751-18.778-19.608-36.218-35.253-51.858l-71.031-71.035
		c-0.035-0.036-0.063-0.071-0.094-0.103c-0.026-0.026-0.062-0.049-0.089-0.076l-0.84-0.844l-0.053,0.049
		c-10.245-9.72-24.427-14.884-41.191-14.884c-35.738,0-81.235,23.293-118.747,60.8c-57.742,57.747-77.524,128.427-45.035,160.907
		c1.795,1.795,3.773,3.396,5.822,4.893l65.782,65.787c37.227,37.235,77.782,46.298,108.431,46.298c4.018,0,7.858-0.155,11.503-0.427
		c21.657-1.587,41.257-7.618,53.506-13.155l16.93,16.933c-10.93,18.991-8.298,43.725,7.915,59.942
		c9.383,9.387,21.867,14.556,35.138,14.556c0,0,0,0,0.009,0c13.271,0,25.747-5.164,35.138-14.551
		c8.681-8.693,13.653-20.209,14.392-32.116c11.911-0.733,23.436-5.715,32.129-14.408c9.382-9.383,14.547-21.862,14.537-35.138
		C848.415,418.782,843.242,406.303,833.869,396.929z M511.078,191.387c32.19-32.187,71.399-52.987,99.893-52.987
		c10.174,0,18.005,2.667,23.271,7.911l0.08,0.076c9.089,9.142,10.4,26.702,3.587,48.205c-7.871,24.827-25.156,51.449-48.662,74.956
		c-32.205,32.191-71.405,52.986-99.885,52.986c-7.756,0-14.134-1.564-19.071-4.622l-4.716-4.716l-0.355,0.355
		C448.104,294.191,462.327,240.138,511.078,191.387z M815.011,448.338c-6.258,6.271-15.729,8.378-24.106,5.333
		c-4.871-1.76-10.302-0.547-13.96,3.106c-3.662,3.653-4.88,9.094-3.124,13.96c3.03,8.383,0.929,17.858-5.329,24.129
		c-4.352,4.347-10.129,6.738-16.275,6.738h-0.009c-6.147,0-11.938-2.396-16.276-6.747c-8.906-8.906-8.978-23.364-0.199-32.351
		c0.11-0.103,0.227-0.214,0.302-0.284c2.596-2.48,4.08-5.898,4.125-9.489c0.035-3.587-1.374-7.04-3.907-9.573l-22.733-22.733
		l27.058-27.058l22.725,22.733c2.533,2.537,5.818,3.951,9.573,3.906c3.587-0.04,6.996-1.52,9.48-4.106
		c0.063-0.066,0.164-0.178,0.271-0.284c4.325-4.245,10.045-6.578,16.111-6.578c6.146,0,11.92,2.396,16.267,6.751
		c4.352,4.347,6.747,10.124,6.747,16.28C821.758,438.213,819.362,443.991,815.011,448.338z"/>
	
		<rect x="535.439" y="199.106" transform="matrix(-0.7071 -0.7071 0.7071 -0.7071 774.8207 779.097)" width="26.662" height="59.937"/>
</g>
</svg>
