<?xml version="1.0" encoding="utf-8"?>
<!-- Generator: Adobe Illustrator 16.0.0, SVG Export Plug-In . SVG Version: 6.00 Build 0)  -->
<!DOCTYPE svg PUBLIC "-//W3C//DTD SVG 1.1//EN" "http://www.w3.org/Graphics/SVG/1.1/DTD/svg11.dtd">
<svg version="1.1" id="레이어_1" xmlns="http://www.w3.org/2000/svg" xmlns:xlink="http://www.w3.org/1999/xlink" x="0px"
	 y="0px" width="1280px" height="800px" viewBox="0 0 1280 800" enable-background="new 0 0 1280 800" xml:space="preserve">
<g>
	<path d="M873.143,171.886v-60.343h-87.771V70.4h-60.343v42.057H516.571V172.8h38.4v37.486l-136.229,64v277.029h-33.829V569.6
		h32.915h136.229h18.285h263.314h29.257v-18.285h-29.257V171.886H873.143z M744.229,88.686H768v23.771h-23.771V88.686z
		 M534.857,153.6v-23.771h191.085h60.344h69.485V153.6h-20.114h-281.6H534.857z M436.114,551.314V286.171L554.058,230.4v320.915
		H436.114L436.114,551.314z M719.543,551.314v-98.743h47.543v98.743H719.543z M817.371,551.314h-31.085V434.286h-84.114v117.942
		H572.343V202.057V172.8h245.028V551.314z"/>
	<path d="M681.143,206.628h-84.114v56.686h84.114V206.628z M662.857,245.028h-47.543v-20.114h47.543V245.028z"/>
	<path d="M456.229,358.4h84.114v-56.687h-84.114V358.4z M474.515,320h47.543v20.114h-47.543V320z"/>
	<path d="M456.229,430.629h84.114v-56.687h-84.114V430.629z M474.515,392.229h47.543v20.114h-47.543V392.229z"/>
	<path d="M456.229,500.114h84.114v-56.686h-84.114V500.114z M474.515,462.629h47.543v20.114h-47.543V462.629z"/>
	<path d="M785.371,206.628h-84.114v56.686h84.114V206.628z M767.086,245.028h-47.543v-20.114h47.543V245.028z"/>
	<path d="M681.143,282.514h-84.114V339.2h84.114V282.514z M662.857,320.914h-47.543V300.8h47.543V320.914z"/>
	<path d="M785.371,282.514h-84.114V339.2h84.114V282.514z M767.086,320.914h-47.543V300.8h47.543V320.914z"/>
	<path d="M681.143,358.4h-84.114v56.686h84.114V358.4z M662.857,396.8h-47.543v-20.114h47.543V396.8z"/>
	<path d="M785.371,358.4h-84.114v56.686h84.114V358.4z M767.086,396.8h-47.543v-20.114h47.543V396.8z"/>
	<path d="M681.143,434.286h-84.114v56.686h84.114V434.286z M662.857,472.686h-47.543v-20.114h47.543V472.686z"/>
</g>
</svg>
