<?xml version="1.0" encoding="utf-8"?>
<!-- Generator: Adobe Illustrator 16.0.0, SVG Export Plug-In . SVG Version: 6.00 Build 0)  -->
<!DOCTYPE svg PUBLIC "-//W3C//DTD SVG 1.1//EN" "http://www.w3.org/Graphics/SVG/1.1/DTD/svg11.dtd">
<svg version="1.1" xmlns="http://www.w3.org/2000/svg" xmlns:xlink="http://www.w3.org/1999/xlink" x="0px" y="0px" width="1280px"
	 height="800px" viewBox="0 0 1280 800" enable-background="new 0 0 1280 800" xml:space="preserve">
<g id="레이어_2">
	<polygon fill="#FFA4F4" points="426.5,417.5 426.5,463.5 443.5,499.5 475.5,524.5 526.5,533.5 578.5,527.5 614.5,487.5 
		628.5,445.5 628.5,400 601.5,355.5 555.061,331.5 500.5,331.5 448.5,363.5 426.5,403.838 	"/>
</g>
<g id="레이어_1">
	<path d="M867.161,110.541c-0.013-4.141-2.137-8.839-5.549-12.23c-3.455-3.469-8.019-5.53-12.211-5.53
		c-1.9,0-4.602,0.429-6.675,2.496l-124.25,128.755c-17.722-13.946-40-22.336-64.243-22.336c-27.82,0-53.983,10.835-73.651,30.502
		c-4.825,4.826-9.106,10.048-12.832,15.591c6.593-1.914,13.338-3.456,20.282-4.224c1.369,0.025,2.227,0.051,2.227,0.051
		c1.882,0.006,3.687,0.243,5.434,0.627c15.879-15.098,36.551-23.456,58.541-23.456c46.912,0,85.069,38.163,85.069,85.063
		c0,24.396-10.375,46.361-26.874,61.882c0.058,1.075,0.166,2.111,0.103,3.264c0,0,0.063,10.451-3.636,23.354
		c29.658-18.381,49.511-51.123,49.511-88.506c0-24.384-8.486-46.79-22.579-64.557l129.197-124.896
		C866.438,114.989,867.161,113.005,867.161,110.541z"/>
	<path d="M697.268,377.684c0.211-12.525-9.754-22.989-22.272-23.335c-0.115-0.013-0.218,0-0.32,0l-11.187-0.352v-0.013
		c0,0,0,0-0.013,0c-6.08-0.173-10.932-5.114-11.137-11.137l0.192-12.038c0.211-12.524-9.754-22.976-22.285-23.347l-11.442-0.34
		v-0.013c-0.014,0-0.014,0-0.014,0c-6.208-0.186-11.136-5.299-11.174-11.475l0.198-11.738c0.205-12.524-9.772-22.989-22.298-23.347
		c0,0-0.762-0.038-1.971-0.102c-7.706,0.666-15.193,2.176-22.349,4.422c-29.434,9.229-53.383,31.033-65.491,59.245
		c-18.548,5.197-35.571,15.008-49.563,28.992c-21.472,21.472-33.299,50.035-33.299,80.403c0,26.745,9.338,51.314,24.852,70.752
		l-20.762,21.522c-2.515,2.438-4.135,5.812-4.09,9.376c0.115,6.778,5.639,12.173,12.339,12.064c3.54-0.064,6.887-1.824,9.255-4.448
		l21.216-20.512c19.456,15.584,44.09,24.96,70.899,24.96c52.659,0,96.935-36.038,109.812-84.71
		c25.587-11.31,45.938-32.327,55.372-58.791C697.785,386.72,697.268,377.684,697.268,377.684z M526.547,528.135
		c-52.173-0.013-94.617-42.451-94.617-94.624c0-25.273,9.843-49.024,27.719-66.899c17.862-17.862,41.625-27.699,66.898-27.699
		c52.173,0,94.611,42.426,94.611,94.599S578.714,528.122,526.547,528.135z"/>
</g>
</svg>
