<?xml version="1.0" encoding="utf-8"?>
<!-- Generator: Adobe Illustrator 16.0.0, SVG Export Plug-In . SVG Version: 6.00 Build 0)  -->
<!DOCTYPE svg PUBLIC "-//W3C//DTD SVG 1.1//EN" "http://www.w3.org/Graphics/SVG/1.1/DTD/svg11.dtd">
<svg version="1.1"
	 id="레이어_1" xmlns:dc="http://purl.org/dc/elements/1.1/" xmlns:svg="http://www.w3.org/2000/svg" xmlns:sodipodi="http://sodipodi.sourceforge.net/DTD/sodipodi-0.dtd" xmlns:rdf="http://www.w3.org/1999/02/22-rdf-syntax-ns#" xmlns:inkscape="http://www.inkscape.org/namespaces/inkscape" xmlns:cc="http://creativecommons.org/ns#"
	 xmlns="http://www.w3.org/2000/svg" xmlns:xlink="http://www.w3.org/1999/xlink" x="0px" y="0px" width="1280px" height="800px"
	 viewBox="0 0 1280 800" enable-background="new 0 0 1280 800" xml:space="preserve">
<g transform="translate(0,-952.36218)">
	<path d="M883.2,971.562c6.702,0.001,12.799,6.098,12.8,12.8v576c-0.001,6.702-6.098,12.799-12.8,12.8c-162.133,0-324.268,0-486.4,0
		c-6.702-0.001-12.799-6.098-12.8-12.8v-460.8c0-6.702,6.098-12.799,12.8-12.8h128v-102.4c0.001-6.702,6.098-12.799,12.8-12.8H883.2
		z M870.4,997.162h-320c0,183.467,0,366.934,0,550.4H665.6v-115.2c0.001-6.702,6.099-12.799,12.801-12.8h64
		c6.702,0.001,12.799,6.098,12.8,12.8v115.2h115.2V997.162z M844.8,1009.962c6.702,0,12.8,6.098,12.8,12.8v64
		c0,6.702-6.098,12.799-12.8,12.8h-64c-6.702,0-12.799-6.098-12.8-12.8v-64c0.001-6.702,6.098-12.799,12.8-12.8H844.8z
		 M742.4,1009.962c6.702,0,12.799,6.098,12.8,12.8v64c-0.001,6.702-6.098,12.799-12.8,12.8h-64c-6.702,0-12.8-6.098-12.801-12.8v-64
		c0.001-6.702,6.099-12.799,12.801-12.8H742.4z M640,1009.962c6.702,0,12.8,6.098,12.8,12.8v64c0,6.702-6.098,12.799-12.8,12.8h-64
		c-6.702,0-12.8-6.098-12.8-12.8v-64c0-6.702,6.098-12.799,12.8-12.8H640z M832,1035.562h-38.4v38.4H832V1035.562z M729.6,1035.562
		H691.2v38.4H729.6V1035.562z M627.2,1035.562h-38.4v38.4h38.4V1035.562z M844.8,1112.362c6.702,0,12.8,6.098,12.8,12.8v64
		c0,6.702-6.098,12.799-12.8,12.8h-64c-6.702-0.001-12.799-6.098-12.8-12.8v-64c0.001-6.702,6.098-12.799,12.8-12.8H844.8z
		 M742.4,1112.362c6.702,0,12.799,6.098,12.8,12.8v64c-0.001,6.702-6.098,12.799-12.8,12.8h-64c-6.702-0.001-12.8-6.098-12.801-12.8
		v-64c0.001-6.702,6.099-12.799,12.801-12.8H742.4z M640,1112.362c6.702,0,12.8,6.098,12.8,12.8v64c0,6.702-6.098,12.799-12.8,12.8
		h-64c-6.702-0.001-12.8-6.098-12.8-12.8v-64c0-6.702,6.098-12.799,12.8-12.8H640z M524.8,1112.362H409.6v435.2h115.2V1112.362z
		 M499.2,1125.162c6.702,0.001,12.799,6.098,12.8,12.8v64c-0.001,6.702-6.098,12.799-12.8,12.8h-64
		c-6.702-0.001-12.8-6.098-12.8-12.8v-64c0-6.702,6.098-12.799,12.8-12.8H499.2z M832,1137.962h-38.4v38.4H832V1137.962z
		 M729.6,1137.962H691.2v38.4H729.6V1137.962z M627.2,1137.962h-38.4v38.4h38.4V1137.962z M486.4,1150.762H448v38.4h38.4V1150.762z
		 M844.8,1214.762c6.702,0.001,12.8,6.098,12.8,12.8v64c0,6.702-6.098,12.799-12.8,12.8h-64c-6.702-0.001-12.799-6.098-12.8-12.8
		v-64c0.001-6.702,6.098-12.799,12.8-12.8H844.8z M742.4,1214.762c6.702,0.001,12.799,6.098,12.8,12.8v64
		c-0.001,6.702-6.098,12.799-12.8,12.8h-64c-6.702-0.001-12.8-6.098-12.801-12.8v-64c0.001-6.702,6.099-12.799,12.801-12.8H742.4z
		 M640,1214.762c6.702,0.001,12.8,6.098,12.8,12.8v64c0,6.702-6.098,12.799-12.8,12.8h-64c-6.702-0.001-12.8-6.098-12.8-12.8v-64
		c0-6.702,6.098-12.799,12.8-12.8H640z M499.2,1227.562c6.702,0.001,12.799,6.098,12.8,12.8v64c-0.001,6.702-6.098,12.799-12.8,12.8
		h-64c-6.702-0.001-12.8-6.098-12.8-12.8v-64c0-6.702,6.098-12.799,12.8-12.8H499.2z M832,1240.362h-38.4v38.4H832V1240.362z
		 M729.6,1240.362H691.2v38.4H729.6V1240.362z M627.2,1240.362h-38.4v38.4h38.4V1240.362z M486.4,1253.162H448v38.4h38.4V1253.162z
		 M844.8,1317.162c6.702,0.001,12.8,6.099,12.8,12.8v64c0,6.702-6.098,12.8-12.8,12.801h-64c-6.702-0.001-12.799-6.099-12.8-12.801
		v-64c0.001-6.701,6.098-12.799,12.8-12.8H844.8z M742.4,1317.162c6.702,0.001,12.799,6.099,12.8,12.8v64
		c-0.001,6.702-6.098,12.8-12.8,12.801h-64c-6.702-0.001-12.8-6.099-12.801-12.801v-64c0.001-6.701,6.099-12.799,12.801-12.8H742.4z
		 M640,1317.162c6.702,0.001,12.8,6.099,12.8,12.8v64c0,6.702-6.098,12.8-12.8,12.801h-64c-6.702-0.001-12.8-6.099-12.8-12.801v-64
		c0-6.701,6.098-12.799,12.8-12.8H640z M499.2,1329.962c6.702,0.001,12.799,6.099,12.8,12.801v64
		c-0.001,6.702-6.098,12.799-12.8,12.8h-64c-6.702-0.001-12.8-6.098-12.8-12.8v-64c0-6.702,6.098-12.8,12.8-12.801H499.2z
		 M832,1342.763h-38.4v38.399H832V1342.763z M729.6,1342.763H691.2v38.399H729.6V1342.763z M627.2,1342.763h-38.4v38.399h38.4
		V1342.763z M486.4,1355.562H448v38.399h38.4V1355.562z M499.2,1432.362c6.702,0.001,12.799,6.098,12.8,12.8v64
		c-0.001,6.702-6.098,12.8-12.8,12.8h-64c-6.702,0-12.8-6.098-12.8-12.8v-64c0-6.702,6.098-12.799,12.8-12.8H499.2z M729.6,1445.162
		H691.2v102.4H729.6V1445.162z M486.4,1457.962H448v38.4h38.4V1457.962z"/>
</g>
</svg>
