<?xml version="1.0" encoding="utf-8"?>
<!-- Generator: Adobe Illustrator 16.0.0, SVG Export Plug-In . SVG Version: 6.00 Build 0)  -->
<!DOCTYPE svg PUBLIC "-//W3C//DTD SVG 1.1//EN" "http://www.w3.org/Graphics/SVG/1.1/DTD/svg11.dtd">
<svg version="1.1" xmlns="http://www.w3.org/2000/svg" xmlns:xlink="http://www.w3.org/1999/xlink" x="0px" y="0px" width="1280px"
	 height="800px" viewBox="0 0 1280 800" enable-background="new 0 0 1280 800" xml:space="preserve">
<g id="레이어_2">
	<polygon fill="#F6A22E" points="492.5,444.5 453.5,453.5 405.5,496.5 420.5,533.5 449,576.5 526.5,550.5 549.5,481.5 593.5,436.5 
		653.5,400 717.5,386.5 775.468,359.5 798.5,319.5 845.5,279.567 865.5,210.5 856.5,165.5 850.5,131.5 848.5,98.5 834.5,78.5 
		795.5,63.5 762.5,63.5 726.5,55.5 699.5,55.5 665.5,68.5 640,81.5 608.5,94.271 596.5,128.5 585.5,157.5 564.5,183.5 559.5,223.5 
		562.5,261.417 569.5,292.5 564.5,333.5 537.5,380.5 517.5,419.5 	"/>
</g>
<g id="레이어_1">
	<title>Artboard 1</title>
	<path d="M860.864,113.984c-3.648-54.656-46.017-61.696-93.44-65.6c-19.2-1.6-39.487-8.512-59.008-5.504
		c-15.04,2.304-30.336,10.304-44.8,15.808C640,68.032,610.048,75.584,595.2,97.984c-7.937,11.776-8.769,25.984-13.248,39.04
		c-6.016,17.664-19.2,28.672-27.968,44.8c-14.912,27.712-5.696,56.832-2.752,86.144c-1.406,1.975-1.19,4.674,0.512,6.4
		c0,2.112,0,4.288,0,6.4c-0.029,2.514,0.91,4.943,2.624,6.784c1.023,34.944-21.248,78.208-40.576,105.792
		c-9.813,14.775-22.969,27.031-38.4,35.776c-12.8,6.399-28.416,6.912-39.936,15.296c-8.576,6.4-10.561,14.976-17.92,22.528
		c-7.36,7.552-16.704,10.304-22.528,19.199c-9.216,13.696-5.44,27.072,3.392,39.744c9.323,12.1,17.874,24.775,25.6,37.952
		c2.821,7.512,7.783,14.032,14.272,18.752c18.367,11.328,46.976-1.023,65.472-6.399c15.104-4.16,30.016-10.561,36.16-26.177
		c6.144-15.615,1.023-33.023,9.407-49.792c8.385-16.768,25.601-32.832,39.872-44.8c24.972-21.117,54.168-36.653,85.633-45.567
		c25.216-7.297,51.903-11.328,75.52-23.36c27.584-14.08,36.224-39.68,59.712-58.24c20.416-16.128,38.4-29.12,50.752-52.8
		C889.6,219.328,864.704,171.392,860.864,113.984z M799.104,309.568C780.8,322.56,774.4,340.672,758.4,355.392
		c-7.358,6.477-15.781,11.63-24.896,15.232c-1.161-4.567-3.449-8.771-6.656-12.224c-4.544-4.929-11.968,2.432-7.359,7.359
		c2.226,2.428,3.694,5.453,4.224,8.704c-8,2.688-16.256,4.864-24.32,6.912l-1.407-4.032c-2.177-6.399-12.288-3.584-10.049,2.752
		l1.345,3.84c-9.92,2.561-19.584,5.377-29.057,8.576c0.134-4.909-2.289-9.536-6.399-12.224c-5.632-3.712-10.816,5.312-5.248,9.024
		c1.321,0.935,1.868,2.628,1.344,4.159c-0.4,0.928-0.576,1.937-0.512,2.944c-5.376,2.048-10.688,4.16-15.937,6.4l-3.968-11.265
		c-2.24-6.399-12.288-3.584-10.048,2.752l4.607,12.801c-3.327,1.663-6.399,3.392-9.92,5.184c-2.56-5.537-6.294-10.451-10.943-14.4
		c-5.057-4.352-12.8,3.009-7.36,7.36c3.941,3.351,7.07,7.552,9.152,12.288c-3.776,2.304-7.552,4.672-11.2,7.231
		c-2.463-5.234-5.819-9.999-9.92-14.079c-4.8-4.736-12.16,2.624-7.36,7.359c3.727,3.644,6.687,7.995,8.704,12.8l-3.328,2.496
		c-2.88,2.305-5.632,4.736-8.447,7.104c-1.336-5.097-3.883-9.796-7.425-13.696c-4.479-4.992-11.84,2.432-7.359,7.36
		c3.684,4.069,5.615,9.428,5.376,14.912c-2.901,2.773-5.718,5.61-8.448,8.512c-1.454-5.703-3.832-11.13-7.04-16.064
		c-3.648-5.567-12.8-0.384-9.024,5.248c4.087,6.336,6.508,13.601,7.04,21.12c-2.623,3.136-5.184,6.4-7.615,9.536
		c-2.33-8.804-6.162-17.14-11.328-24.64c-3.776-5.504-12.8,0-9.024,5.248c6.387,9.22,10.529,19.806,12.097,30.912
		c0.088,0.515,0.261,1.013,0.512,1.472c-3.327,8.461-5.813,17.229-7.424,26.176c-1.988-15.137-5.483-30.037-10.433-44.479
		c-2.111-6.4-12.16-3.648-10.048,2.752c7.393,20.712,11.244,42.521,11.393,64.512c-3.127,4.429-6.953,8.319-11.328,11.52
		l-3.328-23.487c-0.96-6.4-11.008-3.776-10.048,2.752l3.712,26.304c-4.087,1.818-8.388,3.108-12.8,3.84L480,552.448
		c-0.067-2.87-2.378-5.181-5.248-5.248c-2.898,0-5.248,2.35-5.248,5.248l0.96,8.64c-7.308-0.231-14.439-2.301-20.736-6.016
		l3.648-23.872c0.199-1.274-0.026-2.578-0.64-3.712c3.071-4.864-2.24-10.752-6.977-7.296c-3.858-1.247-7.929-1.704-11.968-1.345
		c-6.244,0.448-12.417-1.549-17.216-5.567c-4.992-12.225,0-17.92,7.616-26.177c6.257-6.958,13.086-13.381,20.416-19.199
		c15.167-6.165,31.027-10.464,47.231-12.801c5.305-0.089,10.324-2.413,13.824-6.399c2.688-3.136,2.24-8.96,5.248-12.8
		s8.576-7.104,11.968-11.328c4.793-6.275,8.019-13.604,9.408-21.376c9.002-12.621,16.883-26.005,23.552-40
		c5.183-5.739,9.496-12.208,12.8-19.2c5.696-12.8,5.761-33.472,20.225-39.232c2.791-0.902,4.321-3.897,3.419-6.688
		c-0.381-1.177-1.16-2.184-2.203-2.847c-6.697-4.984-12.571-10.988-17.408-17.792c-0.459-7.23-1.313-14.431-2.56-21.568l3.584-2.624
		c2.428-1.515,3.243-4.666,1.855-7.168c-1.471-2.486-4.675-3.316-7.168-1.856l0,0c-1.659-8.779-2.517-17.69-2.56-26.624
		c2.85-1.56,5.801-2.928,8.832-4.096c6.399-2.368,3.52-12.48-2.752-10.048c-1.601,0.64-3.137,1.408-4.672,2.048
		c0.895-4.687,2.424-9.229,4.544-13.504c1.344-2.688,2.88-5.248,4.479-7.744c5.14-1.76,10.466-2.92,15.872-3.456
		c6.4-0.64,6.4-11.072,0-10.432c-2.304,0-4.607,0.576-6.912,0.96c3.456-4.736,6.848-9.472,9.856-14.528h0.96
		c6.399,1.152,8.896-7.424,3.904-9.6c0.703-1.6,1.407-3.264,1.983-4.992c2.624-7.744,4.48-15.232,7.168-22.208
		c2.979,0.852,5.84,2.078,8.512,3.648c2.832,0.619,5.629-1.175,6.248-4.006c0.342-1.565-0.05-3.201-1.063-4.441
		c-2.898-1.684-5.966-3.057-9.152-4.096c2.683-4.506,6.176-8.477,10.305-11.712c2.037-1.528,4.176-2.917,6.399-4.16l34.112,1.6
		c6.399,0,6.399-10.112,0-10.432l-12.8-0.576c4.479-1.6,8.896-3.2,12.8-4.8l10.688-4.288c6.245,0,12.449,1.016,18.368,3.008
		c6.4,2.112,9.088-7.936,2.752-10.048l-1.408-0.384c20.864-6.784,36.097-3.392,57.601-0.96c26.815,3.072,76.288-3.2,86.656,32
		c2.943,9.92,0.447,22.784,1.535,33.088c1.634,11.443,4.072,22.756,7.296,33.856C862.976,225.792,849.792,273.664,799.104,309.568z"
		/>
	<path d="M657.664,147.2c2.88-3.328,4.16-7.616,6.399-11.072c7.488-10.112,18.305-13.76,28.48-19.52
		c7.307-2.919,13.539-8.013,17.856-14.592c3.52-5.76-5.505-11.008-9.024-5.248c-8.576,14.08-28.16,11.776-39.424,23.168
		c-4.032,4.096-5.12,10.176-8.512,14.464c-8.257,10.304-20.545,15.36-29.761,24.32c-10.167,9.738-16.771,22.606-18.752,36.544
		c-2.624,20.16,9.473,36.992,9.984,56.96c0.319,2.88,2.914,4.957,5.795,4.637c2.439-0.271,4.366-2.197,4.637-4.637
		c-0.448-18.048-9.792-33.216-9.023-51.2C617.792,169.28,640.576,166.4,657.664,147.2z"/>
	<path d="M797.76,118.848c12.288,28.864-1.664,30.208-4.096,50.368c-2.304,18.88,6.4,28.544-9.088,44.8
		c-24.96,26.112-59.712,40.96-94.72,47.04c-6.4,1.152-3.776,11.2,2.752,10.048c37.376-6.4,85.056-25.088,106.88-58.56
		c11.008-16.832,4.8-38.4,10.688-57.6c4.992-16.128,3.328-25.6-3.392-41.536C804.16,107.456,795.136,112.704,797.76,118.848z"/>
	<path d="M746.432,271.36c5.313-3.968,0-12.8-5.248-9.024c-6.031,4.484-11.065,10.172-14.783,16.704
		c-9.28,15.424-14.528,25.28-34.049,30.528c-8.501,1.946-16.312,6.172-22.592,12.224c-4.021,4.365-8.294,8.489-12.8,12.352
		c-6.912,5.057-15.616,5.44-23.68,8.129c-6.4,2.111-3.648,12.224,2.752,10.048c11.072-3.712,18.624-2.688,27.903-10.177
		c12.801-10.495,20.416-19.199,37.824-24.063C728.063,310.72,726.784,286.08,746.432,271.36z"/>
	<path d="M801.856,249.024c1.023,3.968-4.032,10.944-6.721,13.696c-2.688,2.752-4.8,3.904-6.912,6.4
		c-3.302,3.521-6.279,7.334-8.896,11.392c-7.809,11.584-17.792,29.503-34.561,22.976c-6.399-2.433-8.96,7.68-2.752,10.048
		c18.305,7.104,32.896-7.296,42.24-21.44c6.149-8.782,13.207-16.89,21.056-24.192c6.068-5.328,8.555-13.657,6.4-21.44
		c-1.387-2.545-4.574-3.484-7.119-2.097C802.891,245.295,801.838,247.085,801.856,249.024z"/>
</g>
</svg>
