<?xml version="1.0" encoding="utf-8"?>
<!-- Generator: Adobe Illustrator 16.0.0, SVG Export Plug-In . SVG Version: 6.00 Build 0)  -->
<!DOCTYPE svg PUBLIC "-//W3C//DTD SVG 1.1//EN" "http://www.w3.org/Graphics/SVG/1.1/DTD/svg11.dtd">
<svg version="1.1" id="레이어_1" xmlns="http://www.w3.org/2000/svg" xmlns:xlink="http://www.w3.org/1999/xlink" x="0px"
	 y="0px" width="1280px" height="800px" viewBox="0 0 1280 800" enable-background="new 0 0 1280 800" xml:space="preserve">
<path d="M608,333.44h40.32c3.84,0,6.399-2.561,6.399-6.4v-37.76c0-14.72-12.16-26.88-26.24-26.88c-14.079,0-26.88,12.16-26.88,26.88
	v37.76C601.6,330.24,604.8,333.44,608,333.44z M614.4,289.28c0-7.68,6.399-14.08,13.439-14.08s13.44,6.4,13.44,14.08v31.36H614.4
	V289.28z"/>
<path d="M538.88,382.72c-3.84,0-6.4,2.561-6.4,6.4v23.68c0,3.84,2.561,6.4,6.4,6.4s6.4-2.561,6.4-6.4v-23.68
	C545.28,385.28,542.08,382.72,538.88,382.72z"/>
<path d="M538.88,336.64c-3.84,0-6.4,2.561-6.4,6.4v23.68c0,3.84,2.561,6.4,6.4,6.4s6.4-2.561,6.4-6.4v-23.68
	C545.28,339.84,542.08,336.64,538.88,336.64z"/>
<path d="M538.88,290.56c-3.84,0-6.4,2.56-6.4,6.4v23.68c0,3.841,2.561,6.4,6.4,6.4s6.4-2.56,6.4-6.4v-23.68
	C545.28,293.76,542.08,290.56,538.88,290.56z"/>
<path d="M513.28,382.72c-3.84,0-6.4,2.561-6.4,6.4v23.68c0,3.84,2.561,6.4,6.4,6.4s6.399-2.561,6.399-6.4v-23.68
	C519.68,385.28,516.479,382.72,513.28,382.72z"/>
<path d="M513.28,336.64c-3.84,0-6.4,2.561-6.4,6.4v23.68c0,3.84,2.561,6.4,6.4,6.4s6.399-2.561,6.399-6.4v-23.68
	C519.68,339.84,516.479,336.64,513.28,336.64z"/>
<path d="M513.28,290.56c-3.84,0-6.4,2.56-6.4,6.4v23.68c0,3.841,2.561,6.4,6.4,6.4s6.399-2.56,6.399-6.4v-23.68
	C519.68,293.76,516.479,290.56,513.28,290.56z"/>
<path d="M487.68,382.72c-3.84,0-6.399,2.561-6.399,6.4v23.68c0,3.84,2.56,6.4,6.399,6.4c3.841,0,6.4-2.561,6.4-6.4v-23.68
	C494.08,385.28,491.521,382.72,487.68,382.72z"/>
<path d="M487.68,336.64c-3.84,0-6.399,2.561-6.399,6.4v23.68c0,3.84,2.56,6.4,6.399,6.4c3.841,0,6.4-2.561,6.4-6.4v-23.68
	C494.08,339.84,491.521,336.64,487.68,336.64z"/>
<path d="M487.68,290.56c-3.84,0-6.399,2.56-6.399,6.4v23.68c0,3.841,2.56,6.4,6.399,6.4c3.841,0,6.4-2.56,6.4-6.4v-23.68
	C494.08,293.76,491.521,290.56,487.68,290.56z"/>
<path d="M462.08,382.72c-3.84,0-6.4,2.561-6.4,6.4v23.68c0,3.84,2.561,6.4,6.4,6.4s6.399-2.561,6.399-6.4v-23.68
	C468.479,385.28,465.92,382.72,462.08,382.72z"/>
<path d="M462.08,336.64c-3.84,0-6.4,2.561-6.4,6.4v23.68c0,3.84,2.561,6.4,6.4,6.4s6.399-2.561,6.399-6.4v-23.68
	C468.479,339.84,465.92,336.64,462.08,336.64z"/>
<path d="M462.08,290.56c-3.84,0-6.4,2.56-6.4,6.4v23.68c0,3.841,2.561,6.4,6.4,6.4s6.399-2.56,6.399-6.4v-23.68
	C468.479,293.76,465.92,290.56,462.08,290.56z"/>
<path d="M436.479,382.72c-3.84,0-6.399,2.561-6.399,6.4v23.68c0,3.84,2.56,6.4,6.399,6.4c3.841,0,6.4-2.561,6.4-6.4v-23.68
	C442.88,385.28,440.32,382.72,436.479,382.72z"/>
<path d="M436.479,336.64c-3.84,0-6.399,2.561-6.399,6.4v23.68c0,3.84,2.56,6.4,6.399,6.4c3.841,0,6.4-2.561,6.4-6.4v-23.68
	C442.88,339.84,440.32,336.64,436.479,336.64z"/>
<path d="M436.479,290.56c-3.84,0-6.399,2.56-6.399,6.4v23.68c0,3.841,2.56,6.4,6.399,6.4c3.841,0,6.4-2.56,6.4-6.4v-23.68
	C442.88,293.76,440.32,290.56,436.479,290.56z"/>
<path d="M821.76,382.72c-3.84,0-6.399,2.561-6.399,6.4v23.68c0,3.84,2.56,6.4,6.399,6.4s6.4-2.561,6.4-6.4v-23.68
	C828.16,385.28,824.96,382.72,821.76,382.72z"/>
<path d="M821.76,336.64c-3.84,0-6.399,2.561-6.399,6.4v23.68c0,3.84,2.56,6.4,6.399,6.4s6.4-2.561,6.4-6.4v-23.68
	C828.16,339.84,824.96,336.64,821.76,336.64z"/>
<path d="M821.76,290.56c-3.84,0-6.399,2.56-6.399,6.4v23.68c0,3.841,2.56,6.4,6.399,6.4s6.4-2.56,6.4-6.4v-23.68
	C828.16,293.76,824.96,290.56,821.76,290.56z"/>
<path d="M796.16,382.72c-3.84,0-6.4,2.561-6.4,6.4v23.68c0,3.84,2.561,6.4,6.4,6.4s6.399-2.561,6.399-6.4v-23.68
	C802.56,385.28,799.36,382.72,796.16,382.72z"/>
<path d="M796.16,336.64c-3.84,0-6.4,2.561-6.4,6.4v23.68c0,3.84,2.561,6.4,6.4,6.4s6.399-2.561,6.399-6.4v-23.68
	C802.56,339.84,799.36,336.64,796.16,336.64z"/>
<path d="M796.16,290.56c-3.84,0-6.4,2.56-6.4,6.4v23.68c0,3.841,2.561,6.4,6.4,6.4s6.399-2.56,6.399-6.4v-23.68
	C802.56,293.76,799.36,290.56,796.16,290.56z"/>
<path d="M770.56,382.72c-3.84,0-6.399,2.561-6.399,6.4v23.68c0,3.84,2.56,6.4,6.399,6.4c3.841,0,6.4-2.561,6.4-6.4v-23.68
	C776.96,385.28,774.4,382.72,770.56,382.72z"/>
<path d="M770.56,336.64c-3.84,0-6.399,2.561-6.399,6.4v23.68c0,3.84,2.56,6.4,6.399,6.4c3.841,0,6.4-2.561,6.4-6.4v-23.68
	C776.96,339.84,774.4,336.64,770.56,336.64z"/>
<path d="M770.56,290.56c-3.84,0-6.399,2.56-6.399,6.4v23.68c0,3.841,2.56,6.4,6.399,6.4c3.841,0,6.4-2.56,6.4-6.4v-23.68
	C776.96,293.76,774.4,290.56,770.56,290.56z"/>
<path d="M744.96,382.72c-3.84,0-6.4,2.561-6.4,6.4v23.68c0,3.84,2.561,6.4,6.4,6.4s6.4-2.561,6.4-6.4v-23.68
	C751.36,385.28,748.8,382.72,744.96,382.72z"/>
<path d="M744.96,336.64c-3.84,0-6.4,2.561-6.4,6.4v23.68c0,3.84,2.561,6.4,6.4,6.4s6.4-2.561,6.4-6.4v-23.68
	C751.36,339.84,748.8,336.64,744.96,336.64z"/>
<path d="M744.96,290.56c-3.84,0-6.4,2.56-6.4,6.4v23.68c0,3.841,2.561,6.4,6.4,6.4s6.4-2.56,6.4-6.4v-23.68
	C751.36,293.76,748.8,290.56,744.96,290.56z"/>
<path d="M719.36,382.72c-3.84,0-6.4,2.561-6.4,6.4v23.68c0,3.84,2.561,6.4,6.4,6.4s6.399-2.561,6.399-6.4v-23.68
	C725.76,385.28,723.2,382.72,719.36,382.72z"/>
<path d="M719.36,336.64c-3.84,0-6.4,2.561-6.4,6.4v23.68c0,3.84,2.561,6.4,6.4,6.4s6.399-2.561,6.399-6.4v-23.68
	C725.76,339.84,723.2,336.64,719.36,336.64z"/>
<path d="M719.36,290.56c-3.84,0-6.4,2.56-6.4,6.4v23.68c0,3.841,2.561,6.4,6.4,6.4s6.399-2.56,6.399-6.4v-23.68
	C725.76,293.76,723.2,290.56,719.36,290.56z"/>
<path d="M865.28,435.84H854.4V238.08c0-3.84-2.561-6.4-6.4-6.4H695.04v-32c0-3.84-2.561-6.4-6.4-6.4h-121.6
	c-3.84,0-6.4,2.56-6.4,6.4v32H408.32c-3.84,0-6.4,2.56-6.4,6.4v197.76h-12.8c-3.84,0-6.4,2.561-6.4,6.4s2.56,6.399,6.4,6.399h476.8
	c3.84,0,6.4-2.56,6.4-6.399S869.12,435.84,865.28,435.84z M414.72,273.92h146.56v161.92H414.72V273.92z M640.64,435.84h-24.96
	v-33.28h24.96V435.84z M695.04,435.84V273.92H841.6v161.92H695.04z M841.6,244.48v16.64H695.04v-16.64H841.6z M573.44,206.08h108.8
	v229.76h-28.8v-39.68c0-3.84-2.561-6.4-6.4-6.4h-37.76c-3.84,0-6.4,2.561-6.4,6.4v39.68H573.44V206.08z M414.72,244.48h146.56v16.64
	H414.72V244.48z"/>
</svg>
